<svg width="55" height="50" viewBox="0 0 55 50" fill="none" xmlns="http://www.w3.org/2000/svg">
<path d="M1.5 6.72222C1.5 5.3372 2.04786 4.00891 3.02304 3.02955C3.99823 2.0502 5.32087 1.5 6.7 1.5H22.3V48.5H6.7C5.32087 48.5 3.99823 47.9498 3.02304 46.9704C2.04786 45.9911 1.5 44.6628 1.5 43.2778V6.72222ZM32.7 1.5H48.3C49.6791 1.5 51.0018 2.0502 51.977 3.02955C52.9521 4.00891 53.5 5.3372 53.5 6.72222V19.7778H32.7V1.5ZM32.7 30.2222H53.5V43.2778C53.5 44.6628 52.9521 45.9911 51.977 46.9704C51.0018 47.9498 49.6791 48.5 48.3 48.5H32.7V30.2222Z" stroke="black" stroke-width="3" stroke-linecap="round" stroke-linejoin="round"/>
</svg>
