<svg width="52" height="59" viewBox="0 0 52 59" fill="none" xmlns="http://www.w3.org/2000/svg">
<path d="M43.3333 0H8.66667C6.36812 0 4.16372 0.805785 2.53841 2.24009C0.913093 3.6744 0 5.61973 0 7.64815V42.6111C0 44.6395 0.913093 46.5849 2.53841 48.0192C4.16372 49.4535 6.36812 50.2593 8.66667 50.2593H13.619L7.67619 57.2518C7.47917 57.4837 7.39458 57.7751 7.44101 58.0619C7.48745 58.3488 7.66112 58.6076 7.92381 58.7815C8.1865 58.9553 8.5167 59.03 8.84176 58.989C9.16682 58.948 9.46012 58.7948 9.65714 58.563L16.7143 50.2593H35.2857L42.3429 58.563C42.5399 58.7948 42.8332 58.948 43.1582 58.989C43.4833 59.03 43.8135 58.9553 44.0762 58.7815C44.3389 58.6076 44.5125 58.3488 44.559 58.0619C44.6054 57.7751 44.5208 57.4837 44.3238 57.2518L38.381 50.2593H43.3333C45.6319 50.2593 47.8363 49.4535 49.4616 48.0192C51.0869 46.5849 52 44.6395 52 42.6111V7.64815C52 5.61973 51.0869 3.6744 49.4616 2.24009C47.8363 0.805785 45.6319 0 43.3333 0ZM2.47619 26.2222V13.1111H24.7619V26.2222H2.47619ZM27.2381 13.1111H49.5238V26.2222H27.2381V13.1111ZM8.66667 2.18518H43.3333C44.9752 2.18518 46.5497 2.76075 47.7107 3.78525C48.8716 4.80975 49.5238 6.19928 49.5238 7.64815V10.9259H2.47619V7.64815C2.47619 6.19928 3.1284 4.80975 4.28934 3.78525C5.45028 2.76075 7.02485 2.18518 8.66667 2.18518ZM43.3333 48.0741H8.66667C7.02485 48.0741 5.45028 47.4985 4.28934 46.474C3.1284 45.4495 2.47619 44.06 2.47619 42.6111V28.4074H49.5238V42.6111C49.5238 44.06 48.8716 45.4495 47.7107 46.474C46.5497 47.4985 44.9752 48.0741 43.3333 48.0741ZM14.8571 39.3333C14.8571 39.7655 14.7119 40.188 14.4398 40.5474C14.1677 40.9067 13.781 41.1868 13.3286 41.3522C12.8761 41.5176 12.3782 41.5608 11.8979 41.4765C11.4175 41.3922 10.9763 41.1841 10.63 40.8785C10.2837 40.5729 10.0479 40.1835 9.95234 39.7596C9.8568 39.3358 9.90583 38.8964 10.0933 38.4971C10.2807 38.0978 10.598 37.7565 11.0053 37.5164C11.4125 37.2763 11.8912 37.1481 12.381 37.1481C13.0377 37.1481 13.6675 37.3784 14.1319 37.7882C14.5963 38.198 14.8571 38.7538 14.8571 39.3333ZM42.0952 39.3333C42.0952 39.7655 41.95 40.188 41.6779 40.5474C41.4058 40.9067 41.0191 41.1868 40.5666 41.3522C40.1142 41.5176 39.6163 41.5608 39.136 41.4765C38.6556 41.3922 38.2144 41.1841 37.8681 40.8785C37.5218 40.5729 37.286 40.1835 37.1904 39.7596C37.0949 39.3358 37.1439 38.8964 37.3313 38.4971C37.5188 38.0978 37.8361 37.7565 38.2434 37.5164C38.6506 37.2763 39.1293 37.1481 39.619 37.1481C40.2758 37.1481 40.9056 37.3784 41.37 37.7882C41.8344 38.198 42.0952 38.7538 42.0952 39.3333Z" fill="black"/>
</svg>
