<svg width="52" height="52" viewBox="0 0 52 52" fill="none" xmlns="http://www.w3.org/2000/svg">
<path d="M20.4286 28.3354V7.42736C20.4286 5.4575 19.6459 3.56832 18.2528 2.17542C16.8597 0.782524 14.9702 0 13 0C11.0298 0 9.14033 0.782524 7.74721 2.17542C6.35408 3.56832 5.57143 5.4575 5.57143 7.42736V28.3354C3.30017 29.9166 1.59291 32.1813 0.698142 34.7999C-0.196629 37.4185 -0.232213 40.2542 0.59657 42.8944C1.42535 45.5346 3.07525 47.8414 5.30611 49.4792C7.53697 51.1169 10.2324 52 13 52C15.7676 52 18.463 51.1169 20.6939 49.4792C22.9248 47.8414 24.5746 45.5346 25.4034 42.8944C26.2322 40.2542 26.1966 37.4185 25.3019 34.7999C24.4071 32.1813 22.6998 29.9166 20.4286 28.3354ZM13 3.71368C13.9851 3.71368 14.9298 4.10494 15.6264 4.80139C16.323 5.49784 16.7143 6.44243 16.7143 7.42736V20.4252H9.28571V7.42736C9.28571 6.44243 9.67704 5.49784 10.3736 4.80139C11.0702 4.10494 12.0149 3.71368 13 3.71368ZM13 48.2778C10.956 48.2778 8.96909 47.6033 7.34747 46.3592C5.72586 45.115 4.56015 43.3707 4.03111 41.3966C3.50206 39.4225 3.63927 37.3291 4.42143 35.441C5.2036 33.5528 6.58701 31.9755 8.35714 30.9535L9.28571 30.4336V24.1389H16.7143V30.4336L17.6429 30.9535C19.413 31.9755 20.7964 33.5528 21.5786 35.441C22.3607 37.3291 22.4979 39.4225 21.9689 41.3966C21.4399 43.3707 20.2741 45.115 18.6525 46.3592C17.0309 47.6033 15.044 48.2778 13 48.2778ZM33.4286 3.71368H52V7.42736H33.4286V3.71368ZM33.4286 14.8547H46.4286V18.5684H33.4286V14.8547ZM33.4286 25.9958H52V29.7094H33.4286V25.9958ZM33.4286 37.1368H46.4286V40.8505H33.4286V37.1368Z" fill="black"/>
</svg>
