<svg width="25" height="62" viewBox="0 0 25 62" fill="none" xmlns="http://www.w3.org/2000/svg">
<path d="M12.5 8.94299V17.943M12 49.943V61.443M15.8799 0.999221C18.823 1.91894 21.243 4.03511 22.5469 6.82929L22.8292 7.43416C23.6004 9.08663 24 10.888 24 12.7116V28.0295C24 29.9485 23.5794 31.8442 22.7679 33.5831L22.3541 34.47C21.1657 37.0166 19.0261 38.9957 16.3948 39.9824C13.889 40.9221 11.1226 40.892 8.63782 39.8981L8.48818 39.8383C6.22521 38.9331 4.32108 37.3115 3.0671 35.2215L2.53048 34.3271C1.20184 32.1127 0.5 29.5789 0.5 26.9965V13.6879C0.5 11.2374 1.16598 8.83302 2.42675 6.73175L2.82819 6.06267C4.22966 3.7269 6.42044 1.96951 9.00461 1.10812L9.1406 1.06279C11.3247 0.334764 13.6825 0.312523 15.8799 0.999221Z" stroke="white" stroke-linecap="round"/>
</svg>
